<?xml version="1.0" standalone="no"?><!DOCTYPE svg PUBLIC "-//W3C//DTD SVG 1.1//EN" "http://www.w3.org/Graphics/SVG/1.1/DTD/svg11.dtd"><svg t="1622646858283" class="icon" viewBox="0 0 1537 1024" version="1.1" xmlns="http://www.w3.org/2000/svg" p-id="3492" xmlns:xlink="http://www.w3.org/1999/xlink" width="300.1953125" height="200"><defs><style type="text/css">@font-face { font-family: rbicon; src: url("chrome-extension://dipiagiiohfljcicegpgffpbnjmgjcnf/fonts/rbicon.woff2") format("woff2"); font-weight: normal; font-style: normal; }
</style></defs><path d="M1406.707339 1021.854373h-67.639091l-603.966032 0.478579a63.810463 63.810463 0 0 1-63.810463-63.810463 64.735715 64.735715 0 0 1 63.810463-64.799525l548.131877 0.510483c97.310956-0.606199 120.601775-23.641777 123.473246-107.712061l-0.638105-543.69705c-2.552419-94.375675-29.671865-112.689278-126.982821-112.689278l58.067521-1.435735-798.045555 0.478578L157.840862 511.370669l401.463528 402.548306a63.810463 63.810463 0 1 1-90.227994 90.227995L36.345741 570.235821a65.948113 65.948113 0 0 1 0-117.857925L462.82297 24.847794a62.789496 62.789496 0 0 1 14.931649-13.368292 63.587126 63.587126 0 0 1 49.995497-10.018242L1407.345443 0.886965a127.110442 127.110442 0 0 1 126.344717 121.9737l0.638105 771.915171a127.620926 127.620926 0 0 1-127.620926 127.078537z m-0.638105-893.346482h-0.319052l0.319052 41.795854V128.507891z m0.638105 719.431065l-0.319053 45.401145-109.753996 0.765725h110.073049v-46.198775zM657.891556 272.496201a59.822309 59.822309 0 0 1 85.50602 1.371925l152.507007 151.836997 150.27364-150.752219a61.35376 61.35376 0 0 1 86.78223 86.750324l-150.592693 149.954588 154.102268 153.145112a61.35376 61.35376 0 1 1-86.78223 86.750324l-153.464163-153.719405-151.54985 151.326513a61.385665 61.385665 0 0 1-86.782229 0 59.598972 59.598972 0 0 1 1.276209-85.410305l151.230797-151.932712-152.507006-152.602723a61.577097 61.577097 0 0 1 0-86.654608z" p-id="3493"></path></svg>