<?xml version="1.0" standalone="no"?><!DOCTYPE svg PUBLIC "-//W3C//DTD SVG 1.1//EN" "http://www.w3.org/Graphics/SVG/1.1/DTD/svg11.dtd"><svg t="1622649539468" class="icon" viewBox="0 0 1024 1024" version="1.1" xmlns="http://www.w3.org/2000/svg" p-id="6133" xmlns:xlink="http://www.w3.org/1999/xlink" width="200" height="200"><defs><style type="text/css">@font-face { font-family: rbicon; src: url("chrome-extension://dipiagiiohfljcicegpgffpbnjmgjcnf/fonts/rbicon.woff2") format("woff2"); font-weight: normal; font-style: normal; }
</style></defs><path d="M445.930667 0a49.6 49.6 0 0 1 49.557333 49.557333 49.6 49.6 0 0 1-49.557333 49.536H313.813333a16.533333 16.533333 0 0 0-16.533333 16.512v148.650667h150.848a47.402667 47.402667 0 0 1 46.869333 54.016l-26.005333 182.101333c81.429333 9.514667 137.024 32 175.146667 58.410667v-211.946667a49.6 49.6 0 0 1 49.536-49.557333h33.045333c12.714667 0 24.234667 4.970667 33.024 12.885333 8.789333-7.893333 20.288-12.885333 33.024-12.885333h33.045333c12.736 0 24.234667 4.970667 33.024 12.885333 8.789333-7.893333 20.309333-12.885333 33.024-12.885333h33.045334a49.6 49.6 0 0 1 49.536 49.557333v214.72A49.6 49.6 0 0 1 1024 611.093333V1024H99.093333A99.2 99.2 0 0 1 0 924.906667c0-37.333333 20.757333-69.866667 51.306667-86.762667a65.664 65.664 0 0 1-6.933334-82.346667A65.962667 65.962667 0 0 1 0 693.674667l0.021333-1.216c0.256-8.448 3.456-51.712 40.256-95.552L0.469333 318.314667a47.402667 47.402667 0 0 1 46.869334-54.058667H198.186667V99.093333A99.2 99.2 0 0 1 297.28 0zM227.776 858.837333H99.093333a66.133333 66.133333 0 0 0-66.069333 66.069334 66.133333 66.133333 0 0 0 66.069333 66.069333H627.626667a66.133333 66.133333 0 0 0 66.069333-66.069333 66.133333 66.133333 0 0 0-66.069333-66.069334h-25.429334l-102.122666 119.125334-272.277334-119.125334z m746.666667-264.256H684.458667c20.693333 23.872 31.274667 47.701333 36.650666 66.069334h203.797334v33.024h-198.186667c0 12.096-3.52 23.274667-9.173333 33.045333h240.384v231.210667h-237.013334c-4.352 12.330667-11.072 23.488-19.626666 33.045333h289.685333V693.674667h-33.045333v-33.024h33.045333v-49.557334a16.533333 16.533333 0 0 0-16.533333-16.512z m-415.786667 264.256H310.186667l180.736 79.061334 67.776-79.061334z m366.250667-99.093333h-240.426667c5.696 9.749333 9.194667 20.949333 9.194667 33.024a65.706667 65.706667 0 0 1-18.261334 45.376c9.749333 5.397333 18.453333 12.458667 25.856 20.693333h124.544v33.024h-104.874666c3.648 10.368 5.76 21.44 5.76 33.045334h198.186666v-165.162667z m-33.045334 99.093333v33.024h-33.024v-33.024h33.024zM627.626667 759.744H99.093333a33.066667 33.066667 0 0 0-33.024 33.024 33.066667 33.066667 0 0 0 33.024 33.045333H627.626667a33.066667 33.066667 0 0 0 33.045333-33.045333 33.066667 33.066667 0 0 0-33.045333-33.024zM379.861333 528.512h-33.024c-304 0-313.536 157.034667-313.813333 164.885333v0.277334a33.066667 33.066667 0 0 0 33.045333 33.045333h594.56a33.066667 33.066667 0 0 0 33.066667-33.045333c-0.106667-6.634667-5.76-165.162667-313.813333-165.162667zM148.650667 627.626667v33.045333H115.605333v-33.045333h33.045334z m330.325333-16.512v33.045333h-33.045333v-33.045333h33.045333z m-165.162667-16.512v33.024H280.746667v-33.024h33.045333z m-66.069333-33.024v33.024h-33.024v-33.024h33.024z m132.117333 0v33.024h-33.024v-33.024h33.024z m181.696 0v33.024h-33.045333v-33.024h33.045333z m-120.490666-99.114667H54.442667l15.146666 106.026667c49.28-39.466667 133.333333-72.981333 277.248-72.981334h33.024a812.8 812.8 0 0 1 56.213334 1.92l4.992-34.965333z m483.84-132.117333h-33.045334a16.533333 16.533333 0 0 0-16.512 16.512v214.72h66.069334V346.837333a16.533333 16.533333 0 0 0-16.512-16.512z m-99.093334 0H792.746667a16.533333 16.533333 0 0 0-16.512 16.512v214.72h66.069333V346.837333a16.533333 16.533333 0 0 0-16.512-16.512z m-99.093333 0h-33.045333a16.533333 16.533333 0 0 0-16.512 16.512v214.72h66.069333V346.837333a16.533333 16.533333 0 0 0-16.512-16.512z m-278.592-33.045334H47.36a14.336 14.336 0 0 0-14.186667 16.426667l2.389334 16.618667h344.32v33.024H40.256l9.429333 66.069333h396.053334l9.450666-66.069333h-42.304v-33.024h47.018667l2.389333-16.682667a14.336 14.336 0 0 0-14.186666-16.341333zM313.813333 33.024h-16.533333a66.133333 66.133333 0 0 0-66.048 66.069333v165.162667h33.024V115.626667a49.6 49.6 0 0 1 49.557333-49.536V33.024z m132.117334 0h-33.024v33.045333h33.024a16.533333 16.533333 0 0 0 16.512-16.512 16.533333 16.533333 0 0 0-16.512-16.533333z m-66.069334 0h-33.024v33.045333h33.024V33.024z" p-id="6134"></path></svg>