<?xml version="1.0" standalone="no"?><!DOCTYPE svg PUBLIC "-//W3C//DTD SVG 1.1//EN" "http://www.w3.org/Graphics/SVG/1.1/DTD/svg11.dtd"><svg t="1622649614401" class="icon" viewBox="0 0 1024 1024" version="1.1" xmlns="http://www.w3.org/2000/svg" p-id="8700" xmlns:xlink="http://www.w3.org/1999/xlink" width="200" height="200"><defs><style type="text/css">@font-face { font-family: rbicon; src: url("chrome-extension://dipiagiiohfljcicegpgffpbnjmgjcnf/fonts/rbicon.woff2") format("woff2"); font-weight: normal; font-style: normal; }
</style></defs><path d="M90.206794 0h301.198954a90.589026 90.589026 0 0 1 90.589026 90.206794v301.198954a90.589026 90.589026 0 0 1-90.589026 90.589026H90.206794A90.589026 90.589026 0 0 1 0 391.405748V90.206794A90.206794 90.206794 0 0 1 90.206794 0z m0 90.206794v301.198954h301.198954V90.206794z m0 451.798432h301.198954a90.589026 90.589026 0 0 1 90.589026 90.589026v301.198954a90.589026 90.589026 0 0 1-90.589026 90.206794H90.206794A90.206794 90.206794 0 0 1 0 933.793206v-301.198954a90.589026 90.589026 0 0 1 90.206794-90.589026z m0 90.589026v301.198954h301.198954v-301.198954zM783.193729 0a241.188503 241.188503 0 1 1-241.188503 240.806271A241.188503 241.188503 0 0 1 783.193729 0z m0 90.206794a150.599477 150.599477 0 1 0 150.599477 150.599477 150.599477 150.599477 0 0 0-150.599477-150.599477z m-150.599477 451.798432h301.198954a90.589026 90.589026 0 0 1 90.206794 90.589026v301.198954a90.206794 90.206794 0 0 1-90.206794 90.206794h-301.198954a90.589026 90.589026 0 0 1-90.589026-90.206794v-301.198954a90.589026 90.589026 0 0 1 90.589026-90.589026z m0 90.589026v301.198954h301.198954v-301.198954z" p-id="8701"></path></svg>