<?xml version="1.0" standalone="no"?><!DOCTYPE svg PUBLIC "-//W3C//DTD SVG 1.1//EN" "http://www.w3.org/Graphics/SVG/1.1/DTD/svg11.dtd"><svg t="1622649588136" class="icon" viewBox="0 0 1024 1024" version="1.1" xmlns="http://www.w3.org/2000/svg" p-id="7876" xmlns:xlink="http://www.w3.org/1999/xlink" width="200" height="200"><defs><style type="text/css">@font-face { font-family: rbicon; src: url("chrome-extension://dipiagiiohfljcicegpgffpbnjmgjcnf/fonts/rbicon.woff2") format("woff2"); font-weight: normal; font-style: normal; }
</style></defs><path d="M931.59 742.56A164.46 164.46 0 0 0 790 601a165.9 165.9 0 0 0-88.08 12.69L456.35 368.1a165.89 165.89 0 0 0 12.41-87.85A164.5 164.5 0 0 0 327.51 139a165.63 165.63 0 0 0-101.58 19.2 20 20 0 0 0-4.43 31.63l96.74 96.74-27.93 27.93-96.74-96.74a20 20 0 0 0-31.63 4.42 165.57 165.57 0 0 0-19.19 101.58A164.47 164.47 0 0 0 284 465a166 166 0 0 0 87.85-12.41L617.7 698.45a166.09 166.09 0 0 0-12.12 87.62 164.09 164.09 0 0 0 162.7 142.34 165.47 165.47 0 0 0 79.5-20.29 20 20 0 0 0 4.5-31.66L766 790.12l27.93-27.93 86.56 86.57A20 20 0 0 0 912 844.4a165.61 165.61 0 0 0 19.59-101.84z m-43.78 57L808 719.77a20 20 0 0 0-28.29 0L723.52 776a20 20 0 0 0 0 28.29l79.35 79.34A125.21 125.21 0 0 1 680.54 852c-38.93-38.93-47.6-99.77-21.08-148a20 20 0 0 0-3.38-23.79L390 414.18a20 20 0 0 0-23.86-3.34c-48.26 26.83-109.28 18.25-148.38-20.84a125.12 125.12 0 0 1-31.46-122.95l89.87 89.87a20 20 0 0 0 28.29 0l56.21-56.22a20 20 0 0 0 0-28.28l-89.87-89.87A124.48 124.48 0 0 1 414.6 362.4a20 20 0 0 0 3.34 23.85l265.84 265.84a20 20 0 0 0 23.93 3.3 124.48 124.48 0 0 1 180.1 144.17z" p-id="7877"></path><path d="M387.18 554.7a20 20 0 0 0-28.28 0L129.07 783.53a20 20 0 0 0 0 28.28l110.45 110.44a20 20 0 0 0 28.28 0l229.83-228.82a20 20 0 0 0 0-28.28zM253.66 879.83l-82.16-82.16L373 597.13l82.16 82.16zM632.1 440.23a20 20 0 0 0 14.15-5.86l77.63-77.64L738 370.9a20 20 0 0 0 28.29 0l107.32-107.29a20 20 0 0 0 0-28.28L817 178.72a20 20 0 0 0-28.28 0L681.43 286a20 20 0 0 0 0 28.29l14.17 14.16-77.6 77.63a20 20 0 0 0 14.14 34.15z m170.76-219.09l28.33 28.33-79 79-28.33-28.33z" p-id="7878"></path></svg>